<svg xmlns="http://www.w3.org/2000/svg" xmlns:xlink="http://www.w3.org/1999/xlink" viewBox="0 0 720 900"><defs><style>.cls-1{isolation:isolate;}.cls-2{fill:#cae7ff;}.cls-3{fill:url(#linear-gradient);}.cls-4{fill:#bdd0fb;}.cls-5{opacity:0.52;}.cls-35,.cls-37,.cls-6{fill:#fff;}.cls-6{mix-blend-mode:overlay;}.cls-7{fill:url(#linear-gradient-2);}.cls-8{fill:url(#linear-gradient-3);}.cls-9{fill:url(#linear-gradient-4);}.cls-10{fill:url(#linear-gradient-5);}.cls-11{fill:url(#linear-gradient-6);}.cls-12{fill:url(#linear-gradient-7);}.cls-13{fill:url(#linear-gradient-8);}.cls-14{fill:url(#linear-gradient-9);}.cls-15{fill:url(#linear-gradient-10);}.cls-16{fill:url(#linear-gradient-11);}.cls-17{fill:url(#linear-gradient-12);}.cls-18{fill:url(#linear-gradient-13);}.cls-19{fill:url(#linear-gradient-14);}.cls-20{fill:url(#linear-gradient-15);}.cls-21{fill:url(#linear-gradient-16);}.cls-22{fill:url(#linear-gradient-17);}.cls-23{fill:url(#linear-gradient-18);}.cls-24{fill:url(#linear-gradient-19);}.cls-25{fill:url(#linear-gradient-20);}.cls-26{fill:url(#linear-gradient-21);}.cls-27{fill:url(#linear-gradient-22);}.cls-28{fill:url(#linear-gradient-23);}.cls-29{fill:url(#linear-gradient-24);}.cls-30{fill:url(#linear-gradient-25);}.cls-31{fill:url(#linear-gradient-26);}.cls-32{fill:url(#linear-gradient-27);}.cls-33{fill:url(#linear-gradient-28);}.cls-34{opacity:0.5;}.cls-36{fill:#91b3fa;}.cls-37{opacity:0.57;}.cls-38,.cls-68{fill:#7d97f4;}.cls-39{fill:url(#linear-gradient-29);}.cls-40{fill:url(#linear-gradient-30);}.cls-41{fill:url(#linear-gradient-31);}.cls-42{fill:url(#linear-gradient-32);}.cls-43{fill:url(#linear-gradient-33);}.cls-44{fill:url(#linear-gradient-34);}.cls-45{fill:url(#linear-gradient-35);}.cls-46{fill:url(#linear-gradient-36);}.cls-47{fill:url(#linear-gradient-37);}.cls-48{fill:url(#linear-gradient-38);}.cls-49{fill:url(#linear-gradient-39);}.cls-50{fill:url(#linear-gradient-40);}.cls-51{fill:url(#linear-gradient-41);}.cls-52{fill:url(#linear-gradient-42);}.cls-53{fill:url(#linear-gradient-43);}.cls-54{fill:url(#linear-gradient-44);}.cls-55{fill:url(#linear-gradient-45);}.cls-56{fill:url(#linear-gradient-46);}.cls-57{fill:url(#linear-gradient-47);}.cls-58{fill:url(#linear-gradient-48);}.cls-59{fill:url(#linear-gradient-49);}.cls-60{fill:url(#linear-gradient-50);}.cls-61{fill:url(#linear-gradient-51);}.cls-62{fill:url(#linear-gradient-52);}.cls-63{fill:url(#linear-gradient-53);}.cls-64{fill:url(#linear-gradient-54);}.cls-65{fill:url(#linear-gradient-55);}.cls-66{fill:url(#linear-gradient-56);}.cls-67{opacity:0.3;}.cls-68{font-size:39.45px;font-family:Poppins-SemiBold, Poppins;font-weight:600;}</style><linearGradient id="linear-gradient" x1="636.68" y1="903.75" x2="242.88" y2="414.68" gradientUnits="userSpaceOnUse"><stop offset="0" stop-color="#dae3fe"/><stop offset="1" stop-color="#e9effd"/></linearGradient><linearGradient id="linear-gradient-2" x1="231.86" y1="554.19" x2="265.74" y2="554.19" xlink:href="#linear-gradient"/><linearGradient id="linear-gradient-3" x1="194.18" y1="554.19" x2="227.99" y2="554.19" xlink:href="#linear-gradient"/><linearGradient id="linear-gradient-4" x1="156.54" y1="554.18" x2="190.28" y2="554.18" xlink:href="#linear-gradient"/><linearGradient id="linear-gradient-5" x1="231.44" y1="578.84" x2="265.26" y2="578.84" xlink:href="#linear-gradient"/><linearGradient id="linear-gradient-6" x1="193.83" y1="578.82" x2="227.58" y2="578.82" xlink:href="#linear-gradient"/><linearGradient id="linear-gradient-7" x1="156.25" y1="578.81" x2="189.93" y2="578.81" xlink:href="#linear-gradient"/><linearGradient id="linear-gradient-8" x1="231.02" y1="603.27" x2="264.78" y2="603.27" xlink:href="#linear-gradient"/><linearGradient id="linear-gradient-9" x1="193.47" y1="603.24" x2="227.16" y2="603.24" xlink:href="#linear-gradient"/><linearGradient id="linear-gradient-10" x1="155.97" y1="603.22" x2="189.59" y2="603.22" xlink:href="#linear-gradient"/><linearGradient id="linear-gradient-11" x1="230.6" y1="627.62" x2="264.3" y2="627.62" xlink:href="#linear-gradient"/><linearGradient id="linear-gradient-12" x1="193.12" y1="627.58" x2="226.75" y2="627.58" xlink:href="#linear-gradient"/><linearGradient id="linear-gradient-13" x1="155.68" y1="627.54" x2="189.24" y2="627.54" xlink:href="#linear-gradient"/><linearGradient id="linear-gradient-14" x1="230.18" y1="651.89" x2="263.83" y2="651.89" xlink:href="#linear-gradient"/><linearGradient id="linear-gradient-15" x1="192.77" y1="651.84" x2="226.34" y2="651.84" xlink:href="#linear-gradient"/><linearGradient id="linear-gradient-16" x1="155.39" y1="651.78" x2="188.9" y2="651.78" xlink:href="#linear-gradient"/><linearGradient id="linear-gradient-17" x1="229.77" y1="676.07" x2="263.35" y2="676.07" xlink:href="#linear-gradient"/><linearGradient id="linear-gradient-18" x1="192.42" y1="676.01" x2="225.94" y2="676.01" xlink:href="#linear-gradient"/><linearGradient id="linear-gradient-19" x1="155.11" y1="675.94" x2="188.55" y2="675.94" xlink:href="#linear-gradient"/><linearGradient id="linear-gradient-20" x1="229.36" y1="700.17" x2="262.88" y2="700.17" xlink:href="#linear-gradient"/><linearGradient id="linear-gradient-21" x1="192.07" y1="700.09" x2="225.53" y2="700.09" xlink:href="#linear-gradient"/><linearGradient id="linear-gradient-22" x1="154.82" y1="700.02" x2="188.21" y2="700.02" xlink:href="#linear-gradient"/><linearGradient id="linear-gradient-23" x1="228.95" y1="724.19" x2="262.41" y2="724.19" xlink:href="#linear-gradient"/><linearGradient id="linear-gradient-24" x1="191.73" y1="724.1" x2="225.12" y2="724.1" xlink:href="#linear-gradient"/><linearGradient id="linear-gradient-25" x1="154.54" y1="724.01" x2="187.87" y2="724.01" xlink:href="#linear-gradient"/><linearGradient id="linear-gradient-26" x1="228.54" y1="748.12" x2="261.94" y2="748.12" xlink:href="#linear-gradient"/><linearGradient id="linear-gradient-27" x1="191.38" y1="748.02" x2="224.72" y2="748.02" xlink:href="#linear-gradient"/><linearGradient id="linear-gradient-28" x1="154.26" y1="747.92" x2="187.53" y2="747.92" xlink:href="#linear-gradient"/><linearGradient id="linear-gradient-29" x1="502.66" y1="127.96" x2="405.42" y2="695.18" gradientUnits="userSpaceOnUse"><stop offset="0" stop-color="#4042e2"/><stop offset="1" stop-color="#4f52ff"/></linearGradient><linearGradient id="linear-gradient-30" x1="336.98" y1="596.69" x2="508.93" y2="596.69" xlink:href="#linear-gradient-29"/><linearGradient id="linear-gradient-31" x1="436.34" y1="407.13" x2="488.66" y2="286.41" gradientUnits="userSpaceOnUse"><stop offset="0" stop-color="#09005d"/><stop offset="1" stop-color="#1a0f91"/></linearGradient><linearGradient id="linear-gradient-32" x1="441.1" y1="485.34" x2="323.37" y2="1301.31" gradientUnits="userSpaceOnUse"><stop offset="0" stop-color="#febbba"/><stop offset="1" stop-color="#ff928e"/></linearGradient><linearGradient id="linear-gradient-33" x1="438.01" y1="484.89" x2="320.29" y2="1300.86" xlink:href="#linear-gradient-32"/><linearGradient id="linear-gradient-34" x1="444.73" y1="578.14" x2="617.32" y2="235" gradientUnits="userSpaceOnUse"><stop offset="0" stop-color="#fe7062"/><stop offset="1" stop-color="#ff928e"/></linearGradient><linearGradient id="linear-gradient-35" x1="-2208.27" y1="766.26" x2="-2189.18" y2="766.26" gradientTransform="translate(2420.6)" xlink:href="#linear-gradient-31"/><linearGradient id="linear-gradient-36" x1="-2202.96" y1="744.53" x2="-2206.6" y2="776.35" gradientTransform="translate(2420.6)" xlink:href="#linear-gradient-32"/><linearGradient id="linear-gradient-37" x1="-2179.2" y1="766.75" x2="-2151.72" y2="766.75" gradientTransform="translate(2420.6)" xlink:href="#linear-gradient-31"/><linearGradient id="linear-gradient-38" x1="-2010.01" y1="653.93" x2="-2013.65" y2="685.76" gradientTransform="translate(2211.7 -31.16) rotate(-3.61)" xlink:href="#linear-gradient-32"/><linearGradient id="linear-gradient-39" x1="-3392.77" y1="774.55" x2="-3355.03" y2="594.57" gradientTransform="matrix(-1, 0, 0, 1, -3150.96, 0)" xlink:href="#linear-gradient-31"/><linearGradient id="linear-gradient-40" x1="280.36" y1="528.63" x2="196.96" y2="620.64" xlink:href="#linear-gradient-29"/><linearGradient id="linear-gradient-41" x1="264.14" y1="533.74" x2="142.57" y2="756.88" xlink:href="#linear-gradient-29"/><linearGradient id="linear-gradient-42" x1="-2188.41" y1="559.04" x2="-2179.94" y2="535.91" gradientTransform="translate(2420.6)" xlink:href="#linear-gradient-32"/><linearGradient id="linear-gradient-43" x1="239.52" y1="484.49" x2="235.58" y2="514.54" xlink:href="#linear-gradient-29"/><linearGradient id="linear-gradient-44" x1="246.4" y1="485.39" x2="242.46" y2="515.44" xlink:href="#linear-gradient-29"/><linearGradient id="linear-gradient-45" x1="-2167.59" y1="524.35" x2="-2218.06" y2="564.54" gradientTransform="translate(2420.6)" xlink:href="#linear-gradient-32"/><linearGradient id="linear-gradient-46" x1="-2187.07" y1="511.12" x2="-2163.95" y2="540.9" gradientTransform="translate(2420.6)" xlink:href="#linear-gradient-31"/><linearGradient id="linear-gradient-47" x1="-2172.67" y1="522.14" x2="-2197.51" y2="541.14" gradientTransform="translate(2420.6)" xlink:href="#linear-gradient-32"/><linearGradient id="linear-gradient-48" x1="-3457.66" y1="534.7" x2="-3405.08" y2="580.12" gradientTransform="matrix(-1, 0, 0, 1, -3150.96, 0)" xlink:href="#linear-gradient-32"/><linearGradient id="linear-gradient-49" x1="-3458.76" y1="538.93" x2="-3407.58" y2="583.14" gradientTransform="matrix(-1, 0, 0, 1, -3150.96, 0)" xlink:href="#linear-gradient-32"/><linearGradient id="linear-gradient-50" x1="-3459.61" y1="536.95" x2="-3407.03" y2="582.37" gradientTransform="matrix(-1, 0, 0, 1, -3150.96, 0)" xlink:href="#linear-gradient-32"/><linearGradient id="linear-gradient-51" x1="-1321.98" y1="1274.17" x2="-1416.73" y2="1472.94" gradientTransform="translate(-281.6 -1315.7) rotate(-62.63)" gradientUnits="userSpaceOnUse"><stop offset="0" stop-color="#e1473d"/><stop offset="1" stop-color="#e9605a"/></linearGradient><linearGradient id="linear-gradient-52" x1="2341.88" y1="-943.33" x2="2286.36" y2="-832.85" gradientTransform="translate(-1629.21 1998.05) rotate(-15.16)" xlink:href="#linear-gradient-34"/><linearGradient id="linear-gradient-53" x1="-1393.81" y1="1327.65" x2="-1311.81" y2="1519.99" gradientTransform="translate(-281.6 -1315.7) rotate(-62.63)" gradientUnits="userSpaceOnUse"><stop offset="0" stop-color="#ff9085"/><stop offset="1" stop-color="#fb6fbb"/></linearGradient><linearGradient id="linear-gradient-54" x1="351.58" y1="524.55" x2="402.02" y2="396.31" xlink:href="#linear-gradient-34"/><linearGradient id="linear-gradient-55" x1="379.36" y1="388.12" x2="370.78" y2="404.75" xlink:href="#linear-gradient-34"/><linearGradient id="linear-gradient-56" x1="-1909.35" y1="2776.36" x2="-1972.81" y2="2886.63" gradientTransform="translate(1200.19 -2665.73) rotate(-18.59)" xlink:href="#linear-gradient-32"/></defs><title>Login</title><g class="cls-1"><g id="Layer_1" data-name="Layer 1"><rect class="cls-2" x="0.5" y="-0.5" width="720" height="900"/><path class="cls-3" d="M529.93,709.78c-9.14,9.46-17.78,15.56-24.6,20.39-80.25,56.67-175.21,40.15-195.39,36.11-29.8-5.95-87.4-17.47-129-65.67-63-72.93-53.19-187.83-4.32-263.68,8.94-13.87,56.16-90.88,152.14-103.23,58.08-7.47,125.79,7.6,174.82,48C606.46,466.61,599.13,638.07,529.93,709.78Z"/><path class="cls-4" d="M221.84,455.35a4,4,0,0,1,4-3.87h134c2.24,0,4.62,1.77,4.62,3.95V759.06a6.32,6.32,0,0,1-2.13,4.32,6.73,6.73,0,0,1-4.6,1.79l-135.43-.36A6.5,6.5,0,0,1,217.8,763a6,6,0,0,1-1.81-4.39Z"/><g class="cls-5"><polygon class="cls-6" points="298.77 472.99 342.59 472.85 342.58 467.52 298.8 467.66 298.77 472.99"/><polygon class="cls-6" points="298.65 492.61 342.65 492.41 342.64 487.04 298.68 487.23 298.65 492.61"/><polygon class="cls-6" points="298.53 512.38 342.71 512.14 342.7 506.73 298.56 506.96 298.53 512.38"/><polygon class="cls-6" points="298.41 532.32 342.77 532.03 342.76 526.57 298.44 526.85 298.41 532.32"/><polygon class="cls-6" points="298.29 552.43 342.84 552.09 342.82 546.58 298.32 546.91 298.29 552.43"/><polygon class="cls-6" points="298.04 593.15 342.96 592.7 342.94 587.11 298.07 587.54 298.04 593.15"/><polygon class="cls-6" points="297.65 655.53 343.15 654.92 343.13 649.18 297.69 649.77 297.65 655.53"/><polygon class="cls-6" points="298.16 572.7 342.9 572.31 342.88 566.76 298.19 567.14 298.16 572.7"/><polygon class="cls-6" points="297.91 613.76 343.02 613.27 343.01 607.62 297.94 608.11 297.91 613.76"/><polygon class="cls-6" points="297.78 634.56 343.09 634 343.07 628.31 297.82 628.85 297.78 634.56"/><polygon class="cls-6" points="297.52 676.67 343.22 676.01 343.2 670.22 297.56 670.87 297.52 676.67"/><polygon class="cls-6" points="297.39 698 343.28 697.28 343.26 691.45 297.43 692.15 297.39 698"/><polygon class="cls-6" points="297.26 719.52 343.35 718.74 343.33 712.85 297.3 713.61 297.26 719.52"/><polygon class="cls-6" points="297.13 741.22 343.41 740.38 343.4 734.44 297.17 735.26 297.13 741.22"/><polygon class="cls-6" points="241.32 473.19 285.41 473.04 285.46 467.7 241.41 467.83 241.32 473.19"/><polygon class="cls-6" points="240.96 492.86 285.24 492.67 285.29 487.28 241.06 487.46 240.96 492.86"/><polygon class="cls-6" points="240.6 512.7 285.06 512.46 285.11 507.03 240.7 507.26 240.6 512.7"/><polygon class="cls-6" points="240.24 532.71 284.88 532.41 284.93 526.94 240.34 527.22 240.24 532.71"/><polygon class="cls-6" points="239.87 552.88 284.7 552.53 284.75 547.01 239.97 547.34 239.87 552.88"/><polygon class="cls-6" points="239.13 593.73 284.34 593.28 284.39 587.67 239.23 588.1 239.13 593.73"/><polygon class="cls-6" points="237.99 656.32 283.78 655.71 283.83 649.95 238.09 650.55 237.99 656.32"/><polygon class="cls-6" points="239.5 573.22 284.52 572.82 284.57 567.26 239.6 567.64 239.5 573.22"/><polygon class="cls-6" points="238.75 614.42 284.16 613.92 284.21 608.25 238.85 608.74 238.75 614.42"/><polygon class="cls-6" points="238.37 635.28 283.97 634.73 284.02 629.01 238.47 629.55 238.37 635.28"/><polygon class="cls-6" points="237.6 677.54 283.59 676.88 283.65 671.07 237.71 671.72 237.6 677.54"/><polygon class="cls-6" points="237.21 698.94 283.4 698.22 283.46 692.36 237.32 693.07 237.21 698.94"/><polygon class="cls-6" points="236.82 720.53 283.21 719.75 283.26 713.84 236.93 714.61 236.82 720.53"/><polygon class="cls-6" points="236.42 742.31 283.02 741.47 283.07 735.51 236.53 736.33 236.42 742.31"/></g><path class="cls-4" d="M145,539.1c.06-2.48,2.61-4.52,5.73-4.52h118c3.16,0,6.27,2.14,6.27,4.66V763.93a4.5,4.5,0,0,1-1.95,3.22,7,7,0,0,1-4.2,1.33l-123.36-.27a6.65,6.65,0,0,1-4.12-1.37,4.21,4.21,0,0,1-1.65-3.29Z"/><polygon class="cls-7" points="231.86 561.05 265.47 561.02 265.74 547.33 232.09 547.33 231.86 561.05"/><polygon class="cls-8" points="194.18 561.05 227.76 561.01 227.99 547.33 194.38 547.33 194.18 561.05"/><polygon class="cls-9" points="156.54 561.04 190.09 561 190.28 547.33 156.7 547.33 156.54 561.04"/><polygon class="cls-10" points="231.44 585.63 264.99 585.64 265.26 572.04 231.67 572.03 231.44 585.63"/><polygon class="cls-11" points="193.83 585.61 227.35 585.63 227.58 572.03 194.02 572.02 193.83 585.61"/><polygon class="cls-12" points="156.25 585.59 189.74 585.61 189.93 572.02 156.41 572.01 156.25 585.59"/><polygon class="cls-13" points="231.02 610.03 264.51 610.06 264.78 596.51 231.25 596.49 231.02 610.03"/><polygon class="cls-14" points="193.47 610 226.94 610.03 227.16 596.48 193.67 596.46 193.47 610"/><polygon class="cls-15" points="155.97 609.97 189.4 610 189.59 596.46 156.13 596.44 155.97 609.97"/><polygon class="cls-16" points="230.6 634.35 264.04 634.39 264.3 620.89 230.83 620.85 230.6 634.35"/><polygon class="cls-17" points="193.12 634.31 226.53 634.35 226.75 620.85 193.32 620.82 193.12 634.31"/><polygon class="cls-18" points="155.68 634.27 189.05 634.31 189.24 620.81 155.84 620.78 155.68 634.27"/><polygon class="cls-19" points="230.19 658.59 263.56 658.64 263.83 645.18 230.42 645.14 230.19 658.59"/><polygon class="cls-20" points="192.77 658.54 226.12 658.59 226.34 645.13 192.97 645.09 192.77 658.54"/><polygon class="cls-21" points="155.39 658.48 188.71 658.53 188.9 645.08 155.55 645.04 155.39 658.48"/><polygon class="cls-22" points="229.77 682.75 263.09 682.81 263.35 669.39 230 669.34 229.77 682.75"/><polygon class="cls-23" points="192.42 682.68 225.71 682.74 225.94 669.33 192.62 669.28 192.42 682.68"/><polygon class="cls-24" points="155.11 682.61 188.36 682.67 188.55 669.27 155.27 669.22 155.11 682.61"/><polygon class="cls-25" points="229.36 706.82 262.62 706.89 262.88 693.52 229.59 693.45 229.36 706.82"/><polygon class="cls-26" points="192.07 706.74 225.3 706.81 225.53 693.45 192.27 693.38 192.07 706.74"/><polygon class="cls-27" points="154.82 706.66 188.02 706.73 188.21 693.37 154.98 693.31 154.82 706.66"/><polygon class="cls-28" points="228.95 730.8 262.15 730.88 262.41 717.56 229.18 717.49 228.95 730.8"/><polygon class="cls-29" points="191.72 730.71 224.9 730.79 225.12 717.48 191.92 717.4 191.72 730.71"/><polygon class="cls-30" points="154.54 730.62 187.68 730.7 187.87 717.39 154.7 717.32 154.54 730.62"/><polygon class="cls-31" points="228.54 754.71 261.69 754.8 261.94 741.52 228.76 741.44 228.54 754.71"/><polygon class="cls-32" points="191.38 754.61 224.5 754.7 224.72 741.43 191.57 741.34 191.38 754.61"/><polygon class="cls-33" points="154.26 754.5 187.34 754.6 187.53 741.33 154.42 741.25 154.26 754.5"/><path class="cls-4" d="M453,544.46c.06-2.48,2.6-4.52,5.72-4.52h118c3.17,0,6.27,2.15,6.27,4.66V769.29a4.45,4.45,0,0,1-1.95,3.22,6.9,6.9,0,0,1-4.2,1.33l-123.36-.26a6.66,6.66,0,0,1-4.11-1.37,4.16,4.16,0,0,1-1.65-3.3Z"/><g class="cls-34"><polygon class="cls-35" points="539.84 566.42 573.45 566.38 573.72 552.69 540.07 552.69 539.84 566.42"/><polygon class="cls-35" points="502.16 566.41 535.74 566.38 535.97 552.69 502.36 552.69 502.16 566.41"/><polygon class="cls-35" points="464.53 566.4 498.07 566.37 498.26 552.69 464.69 552.69 464.53 566.4"/><polygon class="cls-35" points="539.42 590.99 572.97 591.01 573.24 577.41 539.65 577.4 539.42 590.99"/><polygon class="cls-35" points="501.81 590.97 535.33 590.99 535.56 577.4 502.01 577.38 501.81 590.97"/><polygon class="cls-35" points="464.24 590.96 497.72 590.97 497.92 577.38 464.4 577.37 464.24 590.96"/><polygon class="cls-35" points="539 615.4 572.5 615.43 572.76 601.87 539.23 601.85 539 615.4"/><polygon class="cls-35" points="501.46 615.37 534.92 615.39 535.15 601.85 501.65 601.83 501.46 615.37"/><polygon class="cls-35" points="463.95 615.34 497.38 615.36 497.57 601.82 464.11 601.8 463.95 615.34"/><polygon class="cls-35" points="538.58 639.72 572.02 639.76 572.28 626.25 538.82 626.22 538.58 639.72"/><polygon class="cls-35" points="501.11 639.68 534.51 639.72 534.74 626.22 501.3 626.18 501.11 639.68"/><polygon class="cls-35" points="463.66 639.63 497.03 639.67 497.23 626.18 463.82 626.14 463.66 639.63"/><polygon class="cls-35" points="538.17 663.96 571.55 664.01 571.81 650.55 538.4 650.5 538.17 663.96"/><polygon class="cls-35" points="500.75 663.9 534.1 663.95 534.33 650.5 500.95 650.45 500.75 663.9"/><polygon class="cls-35" points="463.38 663.85 496.69 663.9 496.88 650.45 463.54 650.4 463.38 663.85"/><polygon class="cls-35" points="537.75 688.11 571.08 688.17 571.34 674.76 537.98 674.7 537.75 688.11"/><polygon class="cls-35" points="500.4 688.04 533.69 688.1 533.92 674.7 500.6 674.64 500.4 688.04"/><polygon class="cls-35" points="463.09 687.98 496.35 688.04 496.54 674.63 463.25 674.58 463.09 687.98"/><polygon class="cls-35" points="537.34 712.18 570.61 712.25 570.87 698.88 537.57 698.82 537.34 712.18"/><polygon class="cls-35" points="500.06 712.1 533.29 712.17 533.51 698.81 500.25 698.75 500.06 712.1"/><polygon class="cls-35" points="462.81 712.02 496 712.09 496.19 698.74 462.97 698.67 462.81 712.02"/><polygon class="cls-35" points="536.93 736.17 570.14 736.25 570.4 722.93 537.16 722.85 536.93 736.17"/><polygon class="cls-35" points="499.71 736.08 532.88 736.16 533.11 722.84 499.9 722.77 499.71 736.08"/><polygon class="cls-35" points="462.52 735.99 495.67 736.07 495.85 722.76 462.68 722.68 462.52 735.99"/><polygon class="cls-35" points="536.52 760.08 569.67 760.17 569.93 746.89 536.75 746.8 536.52 760.08"/><polygon class="cls-35" points="499.36 759.97 532.48 760.06 532.7 746.79 499.56 746.71 499.36 759.97"/><polygon class="cls-35" points="462.24 759.87 495.33 759.96 495.51 746.7 462.4 746.61 462.24 759.87"/></g><path class="cls-36" d="M335.65,605.58c-9.63-30.23-28.26-54.32-50.33-68.49a89.8,89.8,0,0,1-39.2-55.16q-.83-3.58-2-7.19c-11.59-36.36-43.35-58.71-71-49.92s-40.59,45.39-29,81.75a89.06,89.06,0,0,0,9.43,20.4c12.28,19.51,17.09,42.92,12.57,65.55-4,20.23-2.95,43,4.27,65.68,10.77,33.8,32.79,59.94,58.29,73.09A88.68,88.68,0,0,1,254.29,751c12,13.44,28.84,19.76,44.34,14.82,16.71-5.32,27.16-22.25,27.91-42a94.45,94.45,0,0,1,7.33-32.49C344,666.92,345.39,636.15,335.65,605.58Z"/><path class="cls-37" d="M195.18,460.42c11.26,22.88,21.78,46.11,32,69.44,2.57,5.84,5.05,11.71,7.54,17.58l3.74,8.79,3.67,8.83c2.42,5.9,4.92,11.76,7.27,17.69l7.07,17.77c4.55,11.91,9.21,23.77,13.55,35.77,2.17,6,4.46,11.94,6.52,18l6.24,18.08c8.08,24.19,15.55,48.6,21.76,73.33l-1.07.28-5.35-18.33L296.83,723l-1.45-4.55-2.9-9.1-2.89-9.09c-1-3-2-6-3-9-2.06-6-4.07-12.06-6.17-18.07-8.53-24-17.39-47.86-26.75-71.54-4.76-11.8-9.43-23.65-14.28-35.42l-3.61-8.84-3.69-8.81q-3.67-8.8-7.42-17.6-7.39-17.61-15-35.11t-15.4-35Z"/><path class="cls-38" d="M416.21,545.49c-4.5-33-19.38-61.32-39.57-80a94.52,94.52,0,0,1-30.5-64.16q-.21-3.87-.75-7.8c-5.41-39.71-34.13-68.59-64.14-64.5s-50,39.6-44.55,79.31a94,94,0,0,0,6.06,22.81c9.15,22.41,9.91,47.49,1.2,70.08-7.79,20.2-10.75,44-7.37,68.71,5,36.92,23,67.94,46.94,86.17a93.22,93.22,0,0,1,22.78,25.06c9.92,16.07,26.16,25.66,43,23.37,18.18-2.48,32-18.1,36.29-38.39A99.31,99.31,0,0,1,399,633.9C413.8,610.44,420.76,578.87,416.21,545.49Z"/><path class="cls-37" d="M297.51,369.87c7.5,25.71,14.17,51.64,20.56,77.64,1.6,6.5,3.1,13,4.62,19.55l2.27,9.77,2.2,9.8c1.43,6.54,3,13.06,4.33,19.61l4.09,19.66c2.56,13.15,5.23,26.27,7.54,39.46,1.17,6.59,2.46,13.16,3.5,19.78L349.81,605c4,26.48,7.3,53.08,9.27,79.79l-1.15.1-2.23-19.93-.55-5-.67-5L353.11,645l-1.34-9.93c-.44-3.31-1-6.61-1.5-9.91-1-6.61-2-13.22-3.11-19.81-4.5-26.36-9.35-52.65-14.74-78.84-2.79-13.08-5.47-26.18-8.36-39.23l-2.14-9.8-2.22-9.78c-1.47-6.52-2.95-13-4.49-19.55q-4.45-19.56-9.21-39.05c-3.1-13-6.33-26-9.6-39Z"/><rect class="cls-39" x="288.46" y="410.98" width="269.41" height="361.45" rx="3.71"/><rect class="cls-38" x="321.51" y="465.28" width="202.72" height="259.54" rx="12.23"/><rect class="cls-40" x="336.98" y="486.63" width="171.94" height="220.13" rx="3.67"/><circle class="cls-41" cx="422.67" cy="438.69" r="8.06"/><path class="cls-42" d="M474.74,568.8l-103.69,1.72c-7.89.13-14.31,6.27-14.31,13.71v65.3c0,7.44,6.42,13.21,14.31,12.89l103.69-4.16A13.9,13.9,0,0,0,488.2,644.7V581.59A13,13,0,0,0,474.74,568.8Z"/><path class="cls-43" d="M480,557a5.5,5.5,0,0,1-5.69-5.41v-14.3c0-14.33-12.13-26-27.14-25.92l-33.78.1c-15.4,0-28,12-28,26.69v14.62a5.92,5.92,0,0,1-6,5.72,5.72,5.72,0,0,1-6-5.56V538.26c0-20.94,18-38,40-38h33.78c21.32,0,38.5,16.54,38.5,36.88v14.25A5.68,5.68,0,0,1,480,557Z"/><path class="cls-44" d="M439.67,605c0-7.26-6.34-13-14-12.43-6.81.46-12.44,5.91-12.81,12.43a12.28,12.28,0,0,0,6.72,11.62,4.56,4.56,0,0,1,2.33,4.88l-3,16.62a3.37,3.37,0,0,0,3.57,3.89l7.6-.27a3.62,3.62,0,0,0,3.54-4.13l-2.95-16.46a4.85,4.85,0,0,1,2.46-5A13.1,13.1,0,0,0,439.67,605Z"/><path class="cls-45" d="M231.42,773.06a2.09,2.09,0,0,0,0-.43c-2.15-8.53-12.83-13.84-12.83-13.84l-4.22.33c-2.44,7.52-2.12,12.13-1.73,14.18,0,.06,0,.11,0,.17A100.83,100.83,0,0,0,231.42,773.06Z"/><path class="cls-36" d="M212.64,773.47a1.84,1.84,0,0,0,1.34,1.35c5,1,12.85.2,16.16-.23a1.53,1.53,0,0,0,1.28-1.53A100.83,100.83,0,0,1,212.64,773.47Z"/><path class="cls-46" d="M212.63,752.83l1.79,8.62a1.41,1.41,0,0,0,1.2,1.16,11.44,11.44,0,0,0,2.78-.05,1.77,1.77,0,0,0,1.4-2.08l-1.25-7.65Z"/><path class="cls-36" d="M249.73,773.36c-4.67-.13-7.08-.68-8.33-1.19,0,.46,0,.93,0,1.42a.93.93,0,0,0,.88.94l25.65-.17a1.17,1.17,0,0,0,.94-1.7C265.52,772.94,257,773.56,249.73,773.36Z"/><path class="cls-47" d="M268.88,772.66a1.14,1.14,0,0,0-.1-.19c-2.27-3.17-8-9.47-19.43-12.2l-5.47-.17s-2.43,4.23-2.48,12.07c1.25.51,3.66,1.06,8.33,1.19C257,773.56,265.52,772.94,268.88,772.66Z"/><path class="cls-48" d="M242.62,752.06c.09.41,1.23,6.54,1.67,8.92a1.19,1.19,0,0,0,1.07,1,12.37,12.37,0,0,0,3.74-.3,1.61,1.61,0,0,0,1.12-1.69l-.61-9.71Z"/><path class="cls-49" d="M238.48,638.79s7.52,51.68,13,113.18a2.34,2.34,0,0,1-1.94,2.38,28.15,28.15,0,0,1-6.11.71,2.26,2.26,0,0,1-2.16-1.89c-1.85-10.84-15-69-18.51-81.85,0,0-4,54.41-2.7,82.64a1.34,1.34,0,0,1-1.18,1.39,22.68,22.68,0,0,1-4.91,0,1.78,1.78,0,0,1-1.6-1.52c-1.31-9.17-8.9-63.8-8.57-103.16,0-2.21,2.6-20.45,2.6-20.45Z"/><path class="cls-50" d="M241.39,551.87l1,27a74.48,74.48,0,0,0,8.18,2.32c1.62-5.22,5.19-11.63,8.12-16.4C248,561,241.39,551.87,241.39,551.87Z"/><path class="cls-51" d="M205.22,641.77a2.16,2.16,0,0,1-1.4-1.8c-1-9.7-5.84-69.87,24.73-94.62,0,0,1.76-4.59,16.17,6.69s6.7,23.1,3.25,39.4c-4.18,19.73-11.51,35.85-8.26,48a1.69,1.69,0,0,1-1,2A47.77,47.77,0,0,1,205.22,641.77Z"/><path class="cls-52" d="M240.48,527.32c0,.86-12.22,18.2-12.22,18.2s2.19,4.31,12.66,7.82l9-18.57Z"/><path class="cls-53" d="M234.43,586.66a.38.38,0,0,1-.22-.07c-9.75-6.59-14.34-17.22-14.38-17.33a.39.39,0,0,1,.21-.52.4.4,0,0,1,.52.21c0,.1,4.54,10.53,14.1,17a.4.4,0,0,1,.1.55A.38.38,0,0,1,234.43,586.66Z"/><path class="cls-54" d="M249,571.92a.4.4,0,0,1-.33-.18s-3-4.69-8.69-14.85a11.42,11.42,0,0,0-6.81-5.88c-4.6-1.29-9,1.18-9.08,1.2a.4.4,0,1,1-.39-.69c.19-.1,4.75-2.66,9.67-1.28,3,.84,5.45,2.94,7.3,6.26,5.67,10.14,8.63,14.76,8.66,14.81a.39.39,0,0,1-.11.54A.38.38,0,0,1,249,571.92Z"/><path class="cls-55" d="M250.09,517.39s4.35,10,4.64,15.21,1.42,8.64-4.64,9.69-11.15-2-13.92-7.18c0,0-4.33-8-3.36-11.33S250.09,517.39,250.09,517.39Z"/><path class="cls-56" d="M238.24,531.36l.35-.15a.83.83,0,0,0,.4-1.14c-.85-1.65-2.52-5.43-.37-6.31,2.78-1.14,13.75-3.38,16.12-7.28a7.25,7.25,0,0,0-2.77-10,.41.41,0,0,0-.54.18l-.26.48a.41.41,0,0,1-.76-.08h0a.41.41,0,0,0-.74-.11c-.73,1.17-2.69,3.06-7.95,4-7.47,1.38-12.41,4.4-12.53,9.56a.41.41,0,0,1-.64.34c-.55-.33-1.43-.49-2.61.5-2.06,1.73-1.22,6.2,3.28,9.88a.41.41,0,0,1,0,.66c-.81.53-2,1.8,1.12,3.48a10.57,10.57,0,0,0,6.63,1.44.4.4,0,0,0,.33-.49l-1-4.54a.42.42,0,0,1,.4-.5Z"/><path class="cls-57" d="M238.43,532.32s-1.66-6.37-4.52-4.59,1.49,7.15,3.78,7.38Z"/><path class="cls-58" d="M294.68,549.84s-2.18-3.86-2-5.74-1-4.63.21-4.43,1.51,0,1.84,2.29S299,554,294.68,549.84Z"/><path class="cls-59" d="M295.09,543.7l0,7.71c-14.74,15.91-26.67,16.85-36.34,13.43-2.93,4.77-6.5,11.18-8.12,16.4,39.36,8.67,48.63-27.51,48.63-27.51,5.33-2.21,6.4-3.5,6.17-5Z"/><path class="cls-60" d="M306.43,536.05c-1.26-.51-3.72-5.21-4.2-3.66s.2,3.66,0,4.31-3.26,8.21-2.65,9.89c.44,1.21,2.88,1,3.25,3a1.27,1.27,0,0,0,2.52,0C305.4,549.34,307.68,536.56,306.43,536.05Z"/><path class="cls-61" d="M266.25,520a39.89,39.89,0,0,0,64.25,45.76l68.3,34.53a3.71,3.71,0,0,0,3.58-.12l6.68-4a3.62,3.62,0,0,0,.32-.22l.09-.07a2.09,2.09,0,0,0,.22-.2l.08-.07a2.16,2.16,0,0,0,.25-.27h0a3.71,3.71,0,0,0,.58-3.74L405.18,578a3.75,3.75,0,0,0-1.78-1.94l-6.84-3.46-1.81,3.58-5.88-3,1.81-3.58-5.49-2.78-1.67,3.29-7.14-3.61,1.66-3.29-2.66-1.35-.86,1.7-6-3,.85-1.7-4.65-2.35-1.81,3.58-3.33-1.68,1.81-3.58-2.88-1.46L356.72,557,351,554l1.81-3.59-8.1-4.09h0l-3.47-1.76A39.9,39.9,0,0,0,266.25,520Zm23.27,2.72a8.08,8.08,0,1,1-10.85,3.56A8.07,8.07,0,0,1,289.52,522.7Z"/><path class="cls-62" d="M321.61,532,354,548.4,352.18,552,358,554.9l1.81-3.58,2.88,1.45-1.81,3.59,3.33,1.68,1.81-3.58,4.65,2.35-.85,1.7,6,3,.86-1.69,2.66,1.34-1.66,3.3,7.14,3.61,1.67-3.29,5.49,2.78-1.81,3.58,5.88,3,1.81-3.58,6.84,3.46a3.69,3.69,0,0,1,1.78,1.93l5.42,13.61a3.71,3.71,0,0,1-1.55,4.57l-6.68,4a3.71,3.71,0,0,1-3.57.12l-82.45-41.69Z"/><path class="cls-63" d="M285.08,571.52a39.89,39.89,0,1,0-17.6-53.59A39.89,39.89,0,0,0,285.08,571.52Zm-1.62-36.46a8.07,8.07,0,1,1,10.85-3.56A8.08,8.08,0,0,1,283.46,535.06Z"/><path class="cls-64" d="M331.73,563.69,400,598.22a3.71,3.71,0,0,0,3.57-.12l6.68-4a3.7,3.7,0,0,0,1.78-2.71c-6.22-6.75-65.4-32.59-67.61-37.91-.79-1.89-.92-4.75,1.44-9.2l-3.47-1.75a39.88,39.88,0,1,0-10.69,21.14Zm-41-43a8.07,8.07,0,1,1-10.85,3.56A8.07,8.07,0,0,1,290.75,520.65Z"/><path class="cls-65" d="M288.61,564.54a32.06,32.06,0,1,0-14.15-43.08A32.06,32.06,0,0,0,288.61,564.54Zm-5.15-29.48a8.07,8.07,0,1,1,10.85-3.56A8.08,8.08,0,0,1,283.46,535.06Z"/><path class="cls-66" d="M234.43,586.66S272,599.23,293,583.24a5.91,5.91,0,0,1,4.57-1.16l8,1.3a6.42,6.42,0,0,0,7.31-5,13.6,13.6,0,0,0,.19-5.77l-15.15-.91.43-2s-6.7,1.64-6.83,6.88c0,0-15.71,10.29-44.36-5.68C247.18,571,236,579.69,234.43,586.66Z"/><g class="cls-67"><path class="cls-36" d="M524.54,398.35A1.59,1.59,0,0,1,523,396.7c.07-1.7.07-3.43,0-5.13a1.6,1.6,0,0,1,1.49-1.66h0a1.59,1.59,0,0,1,1.65,1.52c.08,1.79.08,3.61,0,5.4a1.58,1.58,0,0,1-1.48,1.52Zm-2.46-15.07c-.31-1.68-.69-3.36-1.14-5a1.59,1.59,0,0,1,3.06-.83c.47,1.73.87,3.5,1.19,5.27a1.57,1.57,0,0,1-1.27,1.84l-.19,0A1.58,1.58,0,0,1,522.08,383.28Zm-3.89-12.88c-.67-1.56-1.42-3.12-2.22-4.62a1.58,1.58,0,0,1,2.79-1.5c.85,1.59,1.64,3.23,2.34,4.87a1.58,1.58,0,0,1-.83,2.09,1.63,1.63,0,0,1-.52.12A1.58,1.58,0,0,1,518.19,370.4Zm-6.66-11.68c-1-1.38-2.09-2.73-3.21-4a1.58,1.58,0,1,1,2.39-2.08c1.18,1.35,2.32,2.77,3.38,4.22a1.6,1.6,0,0,1-.35,2.22,1.61,1.61,0,0,1-.83.3A1.58,1.58,0,0,1,511.53,358.72Zm-9.11-9.91c-1.28-1.11-2.63-2.19-4-3.2a1.59,1.59,0,0,1,1.87-2.56c1.45,1.06,2.87,2.2,4.22,3.37a1.59,1.59,0,0,1,.16,2.24,1.57,1.57,0,0,1-1.1.54A1.55,1.55,0,0,1,502.42,348.81Zm-11.06-7.64c-1.5-.81-3.06-1.56-4.62-2.24a1.57,1.57,0,0,1-.83-2.08A1.59,1.59,0,0,1,488,336c1.65.72,3.29,1.51,4.87,2.36a1.58,1.58,0,0,1-.65,3A1.6,1.6,0,0,1,491.36,341.17Zm-58.85-.74a1.58,1.58,0,0,1,.66-2.14c1.58-.85,3.22-1.63,4.87-2.34a1.59,1.59,0,0,1,1.25,2.92c-1.57.67-3.13,1.41-4.63,2.21a1.73,1.73,0,0,1-.65.19A1.58,1.58,0,0,1,432.51,340.43Zm46.37-4.26c-1.64-.45-3.33-.84-5-1.15a1.59,1.59,0,0,1,.57-3.12c1.77.33,3.54.74,5.27,1.21a1.58,1.58,0,0,1-.32,3.11A1.53,1.53,0,0,1,478.88,336.17ZM445.22,335a1.59,1.59,0,0,1,1.12-1.95c1.73-.46,3.5-.86,5.27-1.18a1.58,1.58,0,1,1,.56,3.12c-1.68.3-3.36.68-5,1.13l-.31.05A1.59,1.59,0,0,1,445.22,335Zm20.38-.94c-1.7-.07-3.43-.07-5.14,0a1.58,1.58,0,0,1-.16-3.16h0c1.79-.08,3.61-.08,5.4,0a1.58,1.58,0,0,1,0,3.16Z"/><path class="cls-36" d="M424.71,347.37a1.56,1.56,0,0,0,.88-.34c.64-.51,1.3-1,2-1.5a1.59,1.59,0,0,0-1.87-2.56c-.7.51-1.4,1-2.07,1.58a1.58,1.58,0,0,0,1.09,2.82Z"/></g><g class="cls-67"><path class="cls-36" d="M401.6,389.8a1.58,1.58,0,0,0,1.48-1.43c.08-.81.17-1.63.29-2.45a1.58,1.58,0,0,0-3.14-.43c-.12.86-.22,1.73-.31,2.58a1.59,1.59,0,0,0,1.43,1.73Z"/><path class="cls-36" d="M463.77,457.46a1.59,1.59,0,1,1,0-3.17c1.67,0,3.36-.12,5-.28a1.58,1.58,0,0,1,.31,3.15q-1.09.1-2.19.18C465.85,457.4,464.8,457.44,463.77,457.46Zm11.92-2.89a1.58,1.58,0,0,1,1.18-1.91c1.63-.39,3.27-.85,4.86-1.37a1.58,1.58,0,1,1,1,3c-1.68.55-3.4,1-5.12,1.44a1.26,1.26,0,0,1-.27,0A1.58,1.58,0,0,1,475.69,454.57ZM455.15,457c-1.75-.21-3.52-.51-5.25-.87a1.58,1.58,0,0,1,.65-3.1c1.65.34,3.32.62,5,.83a1.58,1.58,0,0,1-.09,3.15A1.43,1.43,0,0,1,455.15,457Zm33.45-6.66a1.58,1.58,0,0,1,.73-2.12c1.51-.74,3-1.55,4.44-2.41a1.59,1.59,0,0,1,1.63,2.72c-1.52.91-3.09,1.76-4.68,2.53a1.41,1.41,0,0,1-.59.16A1.59,1.59,0,0,1,488.6,450.33Zm-47,3.44c-1.66-.6-3.32-1.27-4.92-2a1.58,1.58,0,1,1,1.31-2.88c1.53.7,3.1,1.34,4.68,1.9a1.59,1.59,0,0,1-.44,3.08A1.72,1.72,0,0,1,441.6,453.77Zm-12.51-6.12c-1.49-.95-3-2-4.37-3a1.59,1.59,0,1,1,1.91-2.53c1.34,1,2.74,2,4.15,2.88a1.58,1.58,0,0,1-1.69,2.68ZM418.21,439c-1.26-1.25-2.47-2.57-3.61-3.91A1.59,1.59,0,1,1,417,433c1.08,1.28,2.24,2.53,3.42,3.71a1.58,1.58,0,0,1,0,2.24,1.57,1.57,0,0,1-2.24,0Zm-8.73-10.87c-1-1.49-1.84-3-2.66-4.61a1.58,1.58,0,1,1,2.81-1.46c.78,1.48,1.63,2.95,2.53,4.37a1.59,1.59,0,0,1-2.68,1.7Zm-6.12-12.53c-.6-1.66-1.13-3.36-1.58-5.07a1.58,1.58,0,1,1,3.06-.81c.43,1.62.94,3.24,1.5,4.82a1.58,1.58,0,0,1-1,2,1.65,1.65,0,0,1-.43.09A1.56,1.56,0,0,1,403.36,415.55ZM400.13,402c-.16-1.28-.28-2.6-.36-3.89,0-.47-.06-.94-.08-1.4a1.57,1.57,0,0,1,1.52-1.65,1.59,1.59,0,0,1,1.65,1.52c0,.44,0,.88.07,1.33.08,1.23.19,2.48.35,3.7a1.59,1.59,0,0,1-1.38,1.77h-.1A1.59,1.59,0,0,1,400.13,402Z"/><path class="cls-36" d="M501.63,443.91a1.56,1.56,0,0,0,.89-.34c.67-.54,1.34-1.1,2-1.67a1.59,1.59,0,1,0-2.09-2.39c-.62.54-1.26,1.07-1.89,1.58a1.58,1.58,0,0,0,1.09,2.82Z"/></g><path class="cls-36" d="M504.63,416.91a.75.75,0,0,0,0-.86l-5.22-7.35a39.25,39.25,0,0,0,2.88-12.39l7.92-4.29a.74.74,0,0,0,.38-.77l-1.77-10.67a.73.73,0,0,0-.61-.61l-8.88-1.51a38.91,38.91,0,0,0-6.73-10.79l2.57-8.64a.75.75,0,0,0-.28-.82l-8.79-6.29a.75.75,0,0,0-.86,0l-7.35,5.22a39.25,39.25,0,0,0-12.39-2.88l-4.29-7.93a.74.74,0,0,0-.78-.37l-10.66,1.77a.73.73,0,0,0-.61.6l-1.51,8.89A38.91,38.91,0,0,0,436.86,364l-8.64-2.57a.75.75,0,0,0-.82.28l-6.29,8.79a.75.75,0,0,0,0,.86l5.22,7.35a39.25,39.25,0,0,0-2.88,12.39l-7.93,4.29a.73.73,0,0,0-.37.77l1.77,10.67a.73.73,0,0,0,.6.61l8.89,1.5a39.31,39.31,0,0,0,6.72,10.8l-2.56,8.64a.74.74,0,0,0,.27.81l8.8,6.3a.75.75,0,0,0,.86,0l7.35-5.22a39.25,39.25,0,0,0,12.39,2.88l4.29,7.92a.74.74,0,0,0,.77.38L476,439.63a.73.73,0,0,0,.61-.61l1.5-8.88a39.11,39.11,0,0,0,10.8-6.73l8.64,2.57a.73.73,0,0,0,.81-.28Z"/><path class="cls-4" d="M462,404.51a10.83,10.83,0,1,1,1.59,0A10.58,10.58,0,0,1,462,404.51Zm-4.49-17.19a8.33,8.33,0,1,0,6.08-1.95,10.28,10.28,0,0,0-1.24,0A8.29,8.29,0,0,0,457.48,387.32Z"/><path class="cls-4" d="M464.34,420.21c.9-.06,1.82-.16,2.73-.31h0l.85-.16a26.23,26.23,0,0,0,4.12-1.17l.06,0,.15-.06.3-.11a.64.64,0,0,0,.4-.63,1.42,1.42,0,0,0,0-.2.64.64,0,0,0-.83-.35,25.46,25.46,0,1,1-13.55-48.78,25.47,25.47,0,0,1,27.86,34.43.64.64,0,0,0,1.18.47,26.74,26.74,0,0,0-29.25-36.16,26.76,26.76,0,0,0-22.31,28c.06.91.17,1.82.32,2.73a26.72,26.72,0,0,0,28,22.31Z"/><g class="cls-67"><path class="cls-36" d="M581.33,436.6a1,1,0,0,0,.89-.76c.18-.81.34-1.64.48-2.46a1,1,0,0,0-.81-1.12,1,1,0,0,0-1.12.8c-.13.79-.29,1.57-.46,2.35a1,1,0,0,0,.74,1.17A.88.88,0,0,0,581.33,436.6Z"/><path class="cls-36" d="M582.2,429.14a1,1,0,0,1-.94-1,37.6,37.6,0,0,0,0-4.11l-.06-.86a1,1,0,0,1,.89-1.06,1,1,0,0,1,1.06.9c0,.3,0,.6.07.9.09,1.43.1,2.88.05,4.31a1,1,0,0,1-.92.93Zm-1.77-10.91a39.46,39.46,0,0,0-1.32-4.79,1,1,0,0,1,1.86-.63,42.74,42.74,0,0,1,1.37,5,1,1,0,0,1-.75,1.16l-.14,0A1,1,0,0,1,580.43,418.23Zm-3.21-9.39a41,41,0,0,0-2.46-4.32,1,1,0,0,1,.29-1.35,1,1,0,0,1,1.35.28A39.79,39.79,0,0,1,579,408a1,1,0,0,1-.45,1.3.92.92,0,0,1-.36.1A1,1,0,0,1,577.22,408.84Zm-5.43-8.31a40.09,40.09,0,0,0-3.43-3.59,1,1,0,0,1,1.33-1.44,42.75,42.75,0,0,1,3.6,3.77,1,1,0,0,1-.12,1.38.93.93,0,0,1-.56.23A1,1,0,0,1,571.79,400.53Zm-7.28-6.73a40,40,0,0,0-4.2-2.65,1,1,0,0,1,.94-1.72,42.85,42.85,0,0,1,4.4,2.78,1,1,0,0,1-.51,1.77A1,1,0,0,1,564.51,393.8Zm-8.7-4.77a39.4,39.4,0,0,0-4.72-1.54,1,1,0,1,1,.49-1.89,40.84,40.84,0,0,1,4.95,1.61,1,1,0,0,1,.55,1.27,1,1,0,0,1-.85.62A.89.89,0,0,1,555.81,389Zm-9.6-2.49a40.88,40.88,0,0,0-5-.33,1,1,0,1,1,0-2,43,43,0,0,1,5.2.35,1,1,0,0,1-.07,1.95Zm-16,.1a1,1,0,0,1,.72-1.18,41.07,41.07,0,0,1,4.45-.83c.22,0,.45-.06.68-.09a1,1,0,1,1,.22,1.94l-.64.09a40.27,40.27,0,0,0-4.25.79l-.17,0A1,1,0,0,1,530.22,386.64Z"/></g><g class="cls-67"><path class="cls-36" d="M543.06,468.75a41.64,41.64,0,0,1-5.12-.05,1,1,0,1,1,.14-1.95,41.8,41.8,0,0,0,4.88.05,1,1,0,0,1,.12,1.95Zm4-1.36a1,1,0,0,1,.8-1.13,41.1,41.1,0,0,0,4.76-1.12,1,1,0,0,1,.56,1.88,44.62,44.62,0,0,1-5,1.17h-.11A1,1,0,0,1,547,467.39Zm-14.17.64a44.2,44.2,0,0,1-5-1.29,1,1,0,0,1-.62-1.24,1,1,0,0,1,1.23-.62,42.09,42.09,0,0,0,4.73,1.23,1,1,0,0,1-.12,1.93A1,1,0,0,1,532.86,468Zm23.81-3.29a1,1,0,0,1,.51-1.29,39.62,39.62,0,0,0,4.35-2.23,1,1,0,1,1,1,1.69,42.59,42.59,0,0,1-4.56,2.34,1.32,1.32,0,0,1-.33.08A1,1,0,0,1,556.67,464.74Zm-33.54.12a42.54,42.54,0,0,1-4.5-2.45,1,1,0,1,1,1-1.66,39.68,39.68,0,0,0,4.3,2.33,1,1,0,0,1,.47,1.3,1,1,0,0,1-1.3.48Zm-8.68-5.41a43,43,0,0,1-3.79-3.46,1,1,0,0,1,1.4-1.36,40.37,40.37,0,0,0,3.62,3.29,1,1,0,0,1,.14,1.38,1,1,0,0,1-.7.36A.94.94,0,0,1,514.45,459.45Zm-7.14-7.34a43.29,43.29,0,0,1-2.85-4.26,1,1,0,0,1,.35-1.34,1,1,0,0,1,1.34.35,39.36,39.36,0,0,0,2.72,4.06,1,1,0,0,1-.19,1.38,1,1,0,0,1-.53.19A1,1,0,0,1,507.31,452.11Z"/><path class="cls-36" d="M566.27,460.2a1,1,0,0,0,.53-.2c.67-.51,1.32-1.05,1.94-1.59a1,1,0,0,0-1.29-1.48c-.59.52-1.21,1-1.84,1.52a1,1,0,0,0,.66,1.75Z"/></g><path class="cls-36" d="M568.87,441.75a.51.51,0,0,0,0-.58l-3.5-4.91a26.13,26.13,0,0,0,1.93-8.3l5.3-2.87a.5.5,0,0,0,.26-.51l-1.19-7.14a.49.49,0,0,0-.4-.41l-5.95-1a26.19,26.19,0,0,0-4.5-7.22l1.72-5.78a.51.51,0,0,0-.19-.55l-5.88-4.21a.51.51,0,0,0-.58,0L551,401.75a26.4,26.4,0,0,0-8.3-1.93l-2.87-5.3a.51.51,0,0,0-.51-.25l-7.14,1.18a.51.51,0,0,0-.41.41l-1,5.94a26.46,26.46,0,0,0-7.22,4.51l-5.78-1.72a.49.49,0,0,0-.55.19L513,410.66a.51.51,0,0,0,0,.58l3.49,4.91a26.4,26.4,0,0,0-1.93,8.29l-5.3,2.88a.5.5,0,0,0-.25.51l1.18,7.14a.51.51,0,0,0,.41.41l5.94,1a26.36,26.36,0,0,0,4.51,7.23l-1.72,5.78a.5.5,0,0,0,.19.55l5.88,4.21a.51.51,0,0,0,.58,0l4.91-3.5a26.13,26.13,0,0,0,8.29,1.93l2.88,5.3a.49.49,0,0,0,.51.26l7.14-1.19a.49.49,0,0,0,.41-.4l1-5.95a26.09,26.09,0,0,0,7.23-4.5l5.78,1.72a.51.51,0,0,0,.55-.19Z"/><path class="cls-4" d="M540.31,433.58a7.39,7.39,0,1,1,1.1,0A6.74,6.74,0,0,1,540.31,433.58Zm-4.81-7.83a5.45,5.45,0,0,0,5,5.88h0a5.44,5.44,0,1,0,.91-10.85,4.29,4.29,0,0,0-.8,0A5.45,5.45,0,0,0,535.5,425.75Z"/><path class="cls-4" d="M542,444.51a16.83,16.83,0,0,0,1.86-.22,18.2,18.2,0,0,0,3.63-1l.16-.06a1,1,0,0,0,.61-1,1,1,0,0,0-.06-.3,1,1,0,0,0-1.27-.55,16.52,16.52,0,0,1-3.39.93h0l-.19,0a16.3,16.3,0,0,1-12-2.8l0,0-.09-.06a16.38,16.38,0,0,1-6.67-10.71,13.71,13.71,0,0,1-.19-1.68,16.48,16.48,0,0,1,32.71-3.71c.09.55.15,1.11.19,1.66a16.57,16.57,0,0,1-1.11,7.07.89.89,0,0,0-.07.42,1,1,0,0,0,1.89.3,18.45,18.45,0,0,0,1.24-7.91q-.06-.93-.21-1.86a18.44,18.44,0,0,0-36.6,4.15,17.48,17.48,0,0,0,.22,1.88A18.46,18.46,0,0,0,542,444.51Z"/><text class="cls-68" transform="translate(257.86 165.11)">Welcome!</text></g></g></svg>